<?xml version="1.0" encoding="UTF-8" standalone="no"?>
<!-- Created with Inkscape (http://www.inkscape.org/) -->

<svg
   width="138"
   height="27"
   viewBox="0 0 36.512499 7.14375"
   version="1.1"
   id="svg1"
   xml:space="preserve"
   inkscape:version="1.4.2 (ebf0e940d0, 2025-05-08)"
   sodipodi:docname="inomeado4.svg"
   inkscape:export-filename="inomeado1.svg"
   inkscape:export-xdpi="96"
   inkscape:export-ydpi="96"
   xmlns:inkscape="http://www.inkscape.org/namespaces/inkscape"
   xmlns:sodipodi="http://sodipodi.sourceforge.net/DTD/sodipodi-0.dtd"
   xmlns:xlink="http://www.w3.org/1999/xlink"
   xmlns="http://www.w3.org/2000/svg"
   xmlns:svg="http://www.w3.org/2000/svg"><sodipodi:namedview
     id="namedview1"
     pagecolor="#ffffff"
     bordercolor="#000000"
     borderopacity="0.25"
     inkscape:showpageshadow="2"
     inkscape:pageopacity="0.0"
     inkscape:pagecheckerboard="0"
     inkscape:deskcolor="#d1d1d1"
     inkscape:document-units="mm"
     inkscape:zoom="2.87211"
     inkscape:cx="33.77308"
     inkscape:cy="5.3967293"
     inkscape:window-width="1468"
     inkscape:window-height="697"
     inkscape:window-x="126"
     inkscape:window-y="211"
     inkscape:window-maximized="0"
     inkscape:current-layer="layer1"><inkscape:page
       x="0"
       y="0"
       width="36.512501"
       height="7.1437502"
       id="page2"
       margin="0"
       bleed="0" /></sodipodi:namedview><defs
     id="defs1"><linearGradient
       id="grad1"><stop
         offset="0.0000%"
         stop-color="#c4c6c8"
         stop-opacity="1.0000"
         id="stop1" /><stop
         offset="26.0000%"
         stop-color="#00adef"
         stop-opacity="1.0000"
         id="stop2" /><stop
         offset="100.0000%"
         stop-color="#2e3092"
         stop-opacity="1.0000"
         id="stop3" /></linearGradient><linearGradient
       id="grad3"><stop
         offset="0.0000%"
         stop-color="#ffec00"
         stop-opacity="1.0000"
         id="stop4" /><stop
         offset="49.0000%"
         stop-color="#f07c00"
         stop-opacity="1.0000"
         id="stop5" /><stop
         offset="70.0000%"
         stop-color="#e30016"
         stop-opacity="1.0000"
         id="stop6" /><stop
         offset="100.0000%"
         stop-color="#102a83"
         stop-opacity="1.0000"
         id="stop7" /></linearGradient><linearGradient
       xlink:href="#grad1"
       id="grad2-5"
       x1="168.05521"
       y1="117.03302"
       x2="168.05521"
       y2="351.47287"
       gradientTransform="scale(0.99365274,1.0063878)"
       gradientUnits="userSpaceOnUse" /><linearGradient
       xlink:href="#grad3"
       id="grad4-7"
       x1="280.10318"
       y1="99.468925"
       x2="280.10318"
       y2="264.20642"
       gradientTransform="scale(0.85319608,1.1720635)"
       gradientUnits="userSpaceOnUse" /></defs><g
     inkscape:label="Camada 1"
     inkscape:groupmode="layer"
     id="layer1"><g
       id="g15"
       transform="matrix(0.65500485,0,0,0.65500485,-22.795371,-56.178213)"><path
         d="m 39.916959,86.989821 c 2.346276,0 4.248311,1.902024 4.248311,4.248303 0,2.346275 -1.902035,4.248312 -4.248311,4.248312 -2.346275,0 -4.248302,-1.902037 -4.248302,-4.248312 0,-2.346279 1.902027,-4.248303 4.248302,-4.248303 z"
         style="fill:#c4c6c8;fill-rule:evenodd;stroke-width:0.0276686"
         id="path1" /><g
         id="Layer1000"
         transform="matrix(0.02766854,0,0,0.02766854,32.073922,84.295217)"><defs
           id="defs3" /><path
           d="m 277.7647,161.1013 c -2.3042,26.3292 -13.7565,60.7094 -18.8412,87.0104 22.6191,3.6954 47.4232,17.2012 67.5646,28.768 64.1421,-57.0196 26.7735,-126.8156 -49.1213,-143.83 3.8007,10.0226 1.3452,17.2336 0.3979,28.0516 z m 76.5571,136.4006 c 12.3101,11.8416 37.163,32.258 45.6185,56.1653 l -55.5034,0.0508 c -10.6747,-22.882 -40.704,-69.8382 -89.2865,-87.7294 0.03,16.9107 -1.026,33.9097 6.5077,41.6672 l -18.479,2.0109 c -4.8845,-18.3571 -4.3764,-39.5302 -3.2406,-50.5275 -80.0065,-14.4168 -80.5637,64.1479 -5.4246,58.7133 27.2671,-1.7378 41.9642,-9.7558 64.8176,-16.8365 2.0822,1.9144 21.9102,23.7789 23.0383,26.4306 -163.7836,71.8995 -210.4607,-89.5394 -79.9971,-82.5023 9.6122,-38.8173 44.5452,-78.9742 15.2062,-127.1637 76.5244,7.0597 139.4686,76.125 115.5611,147.8273 -3.6032,10.8065 -10.9918,21.1758 -18.8182,31.894 z"
           style="fill:url(#grad2-5)"
           id="path3" /><defs
           id="defs7" /><path
           d="m 261.6581,307.6558 -18.479,2.0109 c -5.354,-20.1215 -5.7454,-46.4333 -0.2434,-66.9011 10.2708,-38.1863 41.7771,-78.8928 12.9864,-126.1817 85.1705,7.8313 160.1234,93.6867 104.4204,172.3727 -0.11,0.1553 -0.9281,0.3728 -2.7636,0.4926 -10.775,0.7041 -46.2438,0.8845 -46.9187,1.8028 80.73,-62.7265 37.5933,-141.1877 -33.2934,-158.2023 3.8007,10.0226 4.291,17.6018 3.3437,28.4198 -2.3332,26.6636 -26.6195,87.0544 -25.0099,123.9183 0.4006,9.1735 1.4552,16.8907 5.9575,22.268 z"
           style="fill:url(#grad4-7)"
           id="path7" /></g></g><text
       xml:space="preserve"
       style="font-size:5.38209px;text-align:start;writing-mode:lr-tb;direction:ltr;text-anchor:start;fill:#000000;stroke:#000000;stroke-width:0.169515;stroke-dasharray:none;stroke-opacity:1"
       x="6.8622737"
       y="5.4172525"
       id="text15"
       transform="scale(0.98147409,1.0188756)"
       inkscape:export-filename="rect2.svg"
       inkscape:export-xdpi="96"
       inkscape:export-ydpi="96"><tspan
         sodipodi:role="line"
         id="tspan15"
         style="font-style:normal;font-variant:normal;font-weight:bold;font-stretch:normal;font-family:Caladea;-inkscape-font-specification:'Caladea Bold';fill:#000000;fill-opacity:1;stroke:none;stroke-width:0.169515"
         x="6.8622737"
         y="5.4172525">AD MISSÃO</tspan></text></g></svg>
